<mxfile host="app.diagrams.net" modified="2023-09-10T17:05:08.970Z" agent="Mozilla/5.0 (Windows NT 10.0; Win64; x64) AppleWebKit/537.36 (KHTML, like Gecko) Chrome/116.0.0.0 Safari/537.36" etag="kTYT1UhTrxqEfnyptzlx" version="21.7.4" type="device">
  <diagram id="C5RBs43oDa-KdzZeNtuy" name="Page-1">
    <mxGraphModel dx="2000" dy="640" grid="1" gridSize="10" guides="1" tooltips="1" connect="1" arrows="1" fold="1" page="1" pageScale="1" pageWidth="827" pageHeight="1169" math="0" shadow="0">
      <root>
        <mxCell id="WIyWlLk6GJQsqaUBKTNV-0" />
        <mxCell id="WIyWlLk6GJQsqaUBKTNV-1" parent="WIyWlLk6GJQsqaUBKTNV-0" />
        <mxCell id="7I8WZK7cO3IiVVHnGnqm-39" value="Uygulama" style="swimlane;fontStyle=0;align=center;verticalAlign=top;childLayout=stackLayout;horizontal=1;startSize=26;horizontalStack=0;resizeParent=1;resizeLast=0;collapsible=1;marginBottom=0;rounded=0;shadow=0;strokeWidth=1;" vertex="1" parent="WIyWlLk6GJQsqaUBKTNV-1">
          <mxGeometry x="334" y="100" width="336" height="286" as="geometry">
            <mxRectangle x="130" y="380" width="160" height="26" as="alternateBounds" />
          </mxGeometry>
        </mxCell>
        <mxCell id="7I8WZK7cO3IiVVHnGnqm-42" value="- id: int" style="text;html=1;align=center;verticalAlign=middle;resizable=0;points=[];autosize=1;strokeColor=none;fillColor=none;" vertex="1" parent="7I8WZK7cO3IiVVHnGnqm-39">
          <mxGeometry y="26" width="336" height="30" as="geometry" />
        </mxCell>
        <mxCell id="7I8WZK7cO3IiVVHnGnqm-43" value="+ isim: String" style="text;html=1;align=center;verticalAlign=middle;resizable=0;points=[];autosize=1;strokeColor=none;fillColor=none;" vertex="1" parent="7I8WZK7cO3IiVVHnGnqm-39">
          <mxGeometry y="56" width="336" height="30" as="geometry" />
        </mxCell>
        <mxCell id="7I8WZK7cO3IiVVHnGnqm-64" value="+ tür: String" style="text;html=1;align=center;verticalAlign=middle;resizable=0;points=[];autosize=1;strokeColor=none;fillColor=none;" vertex="1" parent="7I8WZK7cO3IiVVHnGnqm-39">
          <mxGeometry y="86" width="336" height="30" as="geometry" />
        </mxCell>
        <mxCell id="7I8WZK7cO3IiVVHnGnqm-40" value="" style="line;html=1;strokeWidth=1;align=left;verticalAlign=middle;spacingTop=-1;spacingLeft=3;spacingRight=3;rotatable=0;labelPosition=right;points=[];portConstraint=eastwest;" vertex="1" parent="7I8WZK7cO3IiVVHnGnqm-39">
          <mxGeometry y="116" width="336" height="50" as="geometry" />
        </mxCell>
        <mxCell id="7I8WZK7cO3IiVVHnGnqm-65" value="+ abonelik ()" style="text;html=1;align=center;verticalAlign=middle;resizable=0;points=[];autosize=1;strokeColor=none;fillColor=none;" vertex="1" parent="7I8WZK7cO3IiVVHnGnqm-39">
          <mxGeometry y="166" width="336" height="30" as="geometry" />
        </mxCell>
        <mxCell id="7I8WZK7cO3IiVVHnGnqm-125" value="+ krediSatinAl ()" style="text;html=1;align=center;verticalAlign=middle;resizable=0;points=[];autosize=1;strokeColor=none;fillColor=none;" vertex="1" parent="7I8WZK7cO3IiVVHnGnqm-39">
          <mxGeometry y="196" width="336" height="30" as="geometry" />
        </mxCell>
        <mxCell id="7I8WZK7cO3IiVVHnGnqm-126" value="+ filmKirala ()" style="text;html=1;align=center;verticalAlign=middle;resizable=0;points=[];autosize=1;strokeColor=none;fillColor=none;" vertex="1" parent="7I8WZK7cO3IiVVHnGnqm-39">
          <mxGeometry y="226" width="336" height="30" as="geometry" />
        </mxCell>
        <mxCell id="7I8WZK7cO3IiVVHnGnqm-127" value="+ filmTalepEt ()" style="text;html=1;align=center;verticalAlign=middle;resizable=0;points=[];autosize=1;strokeColor=none;fillColor=none;" vertex="1" parent="7I8WZK7cO3IiVVHnGnqm-39">
          <mxGeometry y="256" width="336" height="30" as="geometry" />
        </mxCell>
        <mxCell id="7I8WZK7cO3IiVVHnGnqm-147" style="edgeStyle=orthogonalEdgeStyle;rounded=0;orthogonalLoop=1;jettySize=auto;html=1;entryX=0.995;entryY=0.531;entryDx=0;entryDy=0;entryPerimeter=0;" edge="1" parent="WIyWlLk6GJQsqaUBKTNV-1" source="7I8WZK7cO3IiVVHnGnqm-68" target="7I8WZK7cO3IiVVHnGnqm-40">
          <mxGeometry relative="1" as="geometry" />
        </mxCell>
        <mxCell id="7I8WZK7cO3IiVVHnGnqm-68" value="KullaniciYonetimi" style="swimlane;fontStyle=0;align=center;verticalAlign=top;childLayout=stackLayout;horizontal=1;startSize=26;horizontalStack=0;resizeParent=1;resizeLast=0;collapsible=1;marginBottom=0;rounded=0;shadow=0;strokeWidth=1;" vertex="1" parent="WIyWlLk6GJQsqaUBKTNV-1">
          <mxGeometry x="700" y="420" width="160" height="190" as="geometry">
            <mxRectangle x="130" y="380" width="160" height="26" as="alternateBounds" />
          </mxGeometry>
        </mxCell>
        <mxCell id="7I8WZK7cO3IiVVHnGnqm-69" value="- id: int" style="text;html=1;align=center;verticalAlign=middle;resizable=0;points=[];autosize=1;strokeColor=none;fillColor=none;" vertex="1" parent="7I8WZK7cO3IiVVHnGnqm-68">
          <mxGeometry y="26" width="160" height="30" as="geometry" />
        </mxCell>
        <mxCell id="7I8WZK7cO3IiVVHnGnqm-92" value="+ adi: String" style="text;html=1;align=center;verticalAlign=middle;resizable=0;points=[];autosize=1;strokeColor=none;fillColor=none;" vertex="1" parent="7I8WZK7cO3IiVVHnGnqm-68">
          <mxGeometry y="56" width="160" height="30" as="geometry" />
        </mxCell>
        <mxCell id="7I8WZK7cO3IiVVHnGnqm-72" value="" style="line;html=1;strokeWidth=1;align=left;verticalAlign=middle;spacingTop=-1;spacingLeft=3;spacingRight=3;rotatable=0;labelPosition=right;points=[];portConstraint=eastwest;" vertex="1" parent="7I8WZK7cO3IiVVHnGnqm-68">
          <mxGeometry y="86" width="160" height="50" as="geometry" />
        </mxCell>
        <mxCell id="7I8WZK7cO3IiVVHnGnqm-73" value="+ krediSatinAl (): void" style="text;html=1;align=center;verticalAlign=middle;resizable=0;points=[];autosize=1;strokeColor=none;fillColor=none;" vertex="1" parent="7I8WZK7cO3IiVVHnGnqm-68">
          <mxGeometry y="136" width="160" height="30" as="geometry" />
        </mxCell>
        <mxCell id="7I8WZK7cO3IiVVHnGnqm-146" style="edgeStyle=orthogonalEdgeStyle;rounded=0;orthogonalLoop=1;jettySize=auto;html=1;entryX=0;entryY=0.598;entryDx=0;entryDy=0;entryPerimeter=0;" edge="1" parent="WIyWlLk6GJQsqaUBKTNV-1" source="7I8WZK7cO3IiVVHnGnqm-84" target="7I8WZK7cO3IiVVHnGnqm-40">
          <mxGeometry relative="1" as="geometry" />
        </mxCell>
        <mxCell id="7I8WZK7cO3IiVVHnGnqm-84" value="FilmYonetimi" style="swimlane;fontStyle=0;align=center;verticalAlign=top;childLayout=stackLayout;horizontal=1;startSize=26;horizontalStack=0;resizeParent=1;resizeLast=0;collapsible=1;marginBottom=0;rounded=0;shadow=0;strokeWidth=1;" vertex="1" parent="WIyWlLk6GJQsqaUBKTNV-1">
          <mxGeometry x="180" y="420" width="160" height="226" as="geometry">
            <mxRectangle x="130" y="380" width="160" height="26" as="alternateBounds" />
          </mxGeometry>
        </mxCell>
        <mxCell id="7I8WZK7cO3IiVVHnGnqm-85" value="- id: int" style="text;html=1;align=center;verticalAlign=middle;resizable=0;points=[];autosize=1;strokeColor=none;fillColor=none;" vertex="1" parent="7I8WZK7cO3IiVVHnGnqm-84">
          <mxGeometry y="26" width="160" height="30" as="geometry" />
        </mxCell>
        <mxCell id="7I8WZK7cO3IiVVHnGnqm-93" value="+ isim: String" style="text;html=1;align=center;verticalAlign=middle;resizable=0;points=[];autosize=1;strokeColor=none;fillColor=none;" vertex="1" parent="7I8WZK7cO3IiVVHnGnqm-84">
          <mxGeometry y="56" width="160" height="30" as="geometry" />
        </mxCell>
        <mxCell id="7I8WZK7cO3IiVVHnGnqm-86" value="+ tür: String" style="text;html=1;align=center;verticalAlign=middle;resizable=0;points=[];autosize=1;strokeColor=none;fillColor=none;" vertex="1" parent="7I8WZK7cO3IiVVHnGnqm-84">
          <mxGeometry y="86" width="160" height="30" as="geometry" />
        </mxCell>
        <mxCell id="7I8WZK7cO3IiVVHnGnqm-88" value="" style="line;html=1;strokeWidth=1;align=left;verticalAlign=middle;spacingTop=-1;spacingLeft=3;spacingRight=3;rotatable=0;labelPosition=right;points=[];portConstraint=eastwest;" vertex="1" parent="7I8WZK7cO3IiVVHnGnqm-84">
          <mxGeometry y="116" width="160" height="50" as="geometry" />
        </mxCell>
        <mxCell id="7I8WZK7cO3IiVVHnGnqm-89" value="+ listele ()" style="text;html=1;align=center;verticalAlign=middle;resizable=0;points=[];autosize=1;strokeColor=none;fillColor=none;" vertex="1" parent="7I8WZK7cO3IiVVHnGnqm-84">
          <mxGeometry y="166" width="160" height="30" as="geometry" />
        </mxCell>
        <mxCell id="7I8WZK7cO3IiVVHnGnqm-128" value="+ sırala ()" style="text;html=1;align=center;verticalAlign=middle;resizable=0;points=[];autosize=1;strokeColor=none;fillColor=none;" vertex="1" parent="7I8WZK7cO3IiVVHnGnqm-84">
          <mxGeometry y="196" width="160" height="30" as="geometry" />
        </mxCell>
        <mxCell id="7I8WZK7cO3IiVVHnGnqm-145" style="edgeStyle=orthogonalEdgeStyle;rounded=0;orthogonalLoop=1;jettySize=auto;html=1;entryX=0;entryY=0.5;entryDx=0;entryDy=0;exitX=0.5;exitY=0;exitDx=0;exitDy=0;" edge="1" parent="WIyWlLk6GJQsqaUBKTNV-1" source="7I8WZK7cO3IiVVHnGnqm-108" target="7I8WZK7cO3IiVVHnGnqm-84">
          <mxGeometry relative="1" as="geometry">
            <mxPoint x="120" y="540" as="targetPoint" />
          </mxGeometry>
        </mxCell>
        <mxCell id="7I8WZK7cO3IiVVHnGnqm-108" value="FilmAl" style="swimlane;fontStyle=0;align=center;verticalAlign=top;childLayout=stackLayout;horizontal=1;startSize=26;horizontalStack=0;resizeParent=1;resizeLast=0;collapsible=1;marginBottom=0;rounded=0;shadow=0;strokeWidth=1;" vertex="1" parent="WIyWlLk6GJQsqaUBKTNV-1">
          <mxGeometry x="-20" y="680" width="165" height="136" as="geometry">
            <mxRectangle x="130" y="380" width="160" height="26" as="alternateBounds" />
          </mxGeometry>
        </mxCell>
        <mxCell id="7I8WZK7cO3IiVVHnGnqm-109" value="- id: int" style="text;html=1;align=center;verticalAlign=middle;resizable=0;points=[];autosize=1;strokeColor=none;fillColor=none;" vertex="1" parent="7I8WZK7cO3IiVVHnGnqm-108">
          <mxGeometry y="26" width="165" height="30" as="geometry" />
        </mxCell>
        <mxCell id="7I8WZK7cO3IiVVHnGnqm-111" value="" style="line;html=1;strokeWidth=1;align=left;verticalAlign=middle;spacingTop=-1;spacingLeft=3;spacingRight=3;rotatable=0;labelPosition=right;points=[];portConstraint=eastwest;" vertex="1" parent="7I8WZK7cO3IiVVHnGnqm-108">
          <mxGeometry y="56" width="165" height="34" as="geometry" />
        </mxCell>
        <mxCell id="7I8WZK7cO3IiVVHnGnqm-129" value="+ filmAl ()" style="text;html=1;align=center;verticalAlign=middle;resizable=0;points=[];autosize=1;strokeColor=none;fillColor=none;" vertex="1" parent="7I8WZK7cO3IiVVHnGnqm-108">
          <mxGeometry y="90" width="165" height="30" as="geometry" />
        </mxCell>
        <mxCell id="7I8WZK7cO3IiVVHnGnqm-130" value="FilmKirala" style="swimlane;fontStyle=0;align=center;verticalAlign=top;childLayout=stackLayout;horizontal=1;startSize=26;horizontalStack=0;resizeParent=1;resizeLast=0;collapsible=1;marginBottom=0;rounded=0;shadow=0;strokeWidth=1;" vertex="1" parent="WIyWlLk6GJQsqaUBKTNV-1">
          <mxGeometry x="175" y="720" width="165" height="130" as="geometry">
            <mxRectangle x="130" y="380" width="160" height="26" as="alternateBounds" />
          </mxGeometry>
        </mxCell>
        <mxCell id="7I8WZK7cO3IiVVHnGnqm-131" value="- id: int" style="text;html=1;align=center;verticalAlign=middle;resizable=0;points=[];autosize=1;strokeColor=none;fillColor=none;" vertex="1" parent="7I8WZK7cO3IiVVHnGnqm-130">
          <mxGeometry y="26" width="165" height="30" as="geometry" />
        </mxCell>
        <mxCell id="7I8WZK7cO3IiVVHnGnqm-132" value="" style="line;html=1;strokeWidth=1;align=left;verticalAlign=middle;spacingTop=-1;spacingLeft=3;spacingRight=3;rotatable=0;labelPosition=right;points=[];portConstraint=eastwest;" vertex="1" parent="7I8WZK7cO3IiVVHnGnqm-130">
          <mxGeometry y="56" width="165" height="34" as="geometry" />
        </mxCell>
        <mxCell id="7I8WZK7cO3IiVVHnGnqm-133" value="+ filmKirala ()" style="text;html=1;align=center;verticalAlign=middle;resizable=0;points=[];autosize=1;strokeColor=none;fillColor=none;" vertex="1" parent="7I8WZK7cO3IiVVHnGnqm-130">
          <mxGeometry y="90" width="165" height="30" as="geometry" />
        </mxCell>
        <mxCell id="7I8WZK7cO3IiVVHnGnqm-143" style="edgeStyle=orthogonalEdgeStyle;rounded=0;orthogonalLoop=1;jettySize=auto;html=1;entryX=1;entryY=0.5;entryDx=0;entryDy=0;exitX=0.5;exitY=0;exitDx=0;exitDy=0;" edge="1" parent="WIyWlLk6GJQsqaUBKTNV-1" source="7I8WZK7cO3IiVVHnGnqm-135" target="7I8WZK7cO3IiVVHnGnqm-84">
          <mxGeometry relative="1" as="geometry">
            <mxPoint x="442.5" y="540" as="targetPoint" />
          </mxGeometry>
        </mxCell>
        <mxCell id="7I8WZK7cO3IiVVHnGnqm-135" value="FilmTalepEt" style="swimlane;fontStyle=0;align=center;verticalAlign=top;childLayout=stackLayout;horizontal=1;startSize=26;horizontalStack=0;resizeParent=1;resizeLast=0;collapsible=1;marginBottom=0;rounded=0;shadow=0;strokeWidth=1;" vertex="1" parent="WIyWlLk6GJQsqaUBKTNV-1">
          <mxGeometry x="360" y="640" width="165" height="130" as="geometry">
            <mxRectangle x="130" y="380" width="160" height="26" as="alternateBounds" />
          </mxGeometry>
        </mxCell>
        <mxCell id="7I8WZK7cO3IiVVHnGnqm-136" value="- id: int" style="text;html=1;align=center;verticalAlign=middle;resizable=0;points=[];autosize=1;strokeColor=none;fillColor=none;" vertex="1" parent="7I8WZK7cO3IiVVHnGnqm-135">
          <mxGeometry y="26" width="165" height="30" as="geometry" />
        </mxCell>
        <mxCell id="7I8WZK7cO3IiVVHnGnqm-137" value="" style="line;html=1;strokeWidth=1;align=left;verticalAlign=middle;spacingTop=-1;spacingLeft=3;spacingRight=3;rotatable=0;labelPosition=right;points=[];portConstraint=eastwest;" vertex="1" parent="7I8WZK7cO3IiVVHnGnqm-135">
          <mxGeometry y="56" width="165" height="34" as="geometry" />
        </mxCell>
        <mxCell id="7I8WZK7cO3IiVVHnGnqm-138" value="+ filmTalepEt ()" style="text;html=1;align=center;verticalAlign=middle;resizable=0;points=[];autosize=1;strokeColor=none;fillColor=none;" vertex="1" parent="7I8WZK7cO3IiVVHnGnqm-135">
          <mxGeometry y="90" width="165" height="30" as="geometry" />
        </mxCell>
        <mxCell id="7I8WZK7cO3IiVVHnGnqm-144" value="" style="endArrow=classic;html=1;rounded=0;exitX=0.5;exitY=0;exitDx=0;exitDy=0;entryX=0.497;entryY=1.033;entryDx=0;entryDy=0;entryPerimeter=0;" edge="1" parent="WIyWlLk6GJQsqaUBKTNV-1" source="7I8WZK7cO3IiVVHnGnqm-130" target="7I8WZK7cO3IiVVHnGnqm-128">
          <mxGeometry width="50" height="50" relative="1" as="geometry">
            <mxPoint x="380" y="730" as="sourcePoint" />
            <mxPoint x="430" y="680" as="targetPoint" />
          </mxGeometry>
        </mxCell>
        <mxCell id="7I8WZK7cO3IiVVHnGnqm-148" value="Kullanici" style="swimlane;fontStyle=0;align=center;verticalAlign=top;childLayout=stackLayout;horizontal=1;startSize=26;horizontalStack=0;resizeParent=1;resizeLast=0;collapsible=1;marginBottom=0;rounded=0;shadow=0;strokeWidth=1;" vertex="1" parent="WIyWlLk6GJQsqaUBKTNV-1">
          <mxGeometry x="580" y="680" width="165" height="130" as="geometry">
            <mxRectangle x="130" y="380" width="160" height="26" as="alternateBounds" />
          </mxGeometry>
        </mxCell>
        <mxCell id="7I8WZK7cO3IiVVHnGnqm-149" value="- id: int" style="text;html=1;align=center;verticalAlign=middle;resizable=0;points=[];autosize=1;strokeColor=none;fillColor=none;" vertex="1" parent="7I8WZK7cO3IiVVHnGnqm-148">
          <mxGeometry y="26" width="165" height="30" as="geometry" />
        </mxCell>
        <mxCell id="7I8WZK7cO3IiVVHnGnqm-150" value="" style="line;html=1;strokeWidth=1;align=left;verticalAlign=middle;spacingTop=-1;spacingLeft=3;spacingRight=3;rotatable=0;labelPosition=right;points=[];portConstraint=eastwest;" vertex="1" parent="7I8WZK7cO3IiVVHnGnqm-148">
          <mxGeometry y="56" width="165" height="34" as="geometry" />
        </mxCell>
        <mxCell id="7I8WZK7cO3IiVVHnGnqm-151" value="+ kredi ()" style="text;html=1;align=center;verticalAlign=middle;resizable=0;points=[];autosize=1;strokeColor=none;fillColor=none;" vertex="1" parent="7I8WZK7cO3IiVVHnGnqm-148">
          <mxGeometry y="90" width="165" height="30" as="geometry" />
        </mxCell>
        <mxCell id="7I8WZK7cO3IiVVHnGnqm-152" value="Abone" style="swimlane;fontStyle=0;align=center;verticalAlign=top;childLayout=stackLayout;horizontal=1;startSize=26;horizontalStack=0;resizeParent=1;resizeLast=0;collapsible=1;marginBottom=0;rounded=0;shadow=0;strokeWidth=1;" vertex="1" parent="WIyWlLk6GJQsqaUBKTNV-1">
          <mxGeometry x="840" y="680" width="165" height="150" as="geometry">
            <mxRectangle x="130" y="380" width="160" height="26" as="alternateBounds" />
          </mxGeometry>
        </mxCell>
        <mxCell id="7I8WZK7cO3IiVVHnGnqm-153" value="- id: int" style="text;html=1;align=center;verticalAlign=middle;resizable=0;points=[];autosize=1;strokeColor=none;fillColor=none;" vertex="1" parent="7I8WZK7cO3IiVVHnGnqm-152">
          <mxGeometry y="26" width="165" height="30" as="geometry" />
        </mxCell>
        <mxCell id="7I8WZK7cO3IiVVHnGnqm-154" value="" style="line;html=1;strokeWidth=1;align=left;verticalAlign=middle;spacingTop=-1;spacingLeft=3;spacingRight=3;rotatable=0;labelPosition=right;points=[];portConstraint=eastwest;" vertex="1" parent="7I8WZK7cO3IiVVHnGnqm-152">
          <mxGeometry y="56" width="165" height="34" as="geometry" />
        </mxCell>
        <mxCell id="7I8WZK7cO3IiVVHnGnqm-155" value="+ filmKiralama ()" style="text;html=1;align=center;verticalAlign=middle;resizable=0;points=[];autosize=1;strokeColor=none;fillColor=none;" vertex="1" parent="7I8WZK7cO3IiVVHnGnqm-152">
          <mxGeometry y="90" width="165" height="30" as="geometry" />
        </mxCell>
        <mxCell id="7I8WZK7cO3IiVVHnGnqm-156" value="+ kredi ()" style="text;html=1;align=center;verticalAlign=middle;resizable=0;points=[];autosize=1;strokeColor=none;fillColor=none;" vertex="1" parent="7I8WZK7cO3IiVVHnGnqm-152">
          <mxGeometry y="120" width="165" height="30" as="geometry" />
        </mxCell>
        <mxCell id="7I8WZK7cO3IiVVHnGnqm-157" value="" style="endArrow=classic;html=1;rounded=0;exitX=0.5;exitY=0;exitDx=0;exitDy=0;entryX=0.5;entryY=1;entryDx=0;entryDy=0;" edge="1" parent="WIyWlLk6GJQsqaUBKTNV-1" source="7I8WZK7cO3IiVVHnGnqm-148" target="7I8WZK7cO3IiVVHnGnqm-68">
          <mxGeometry width="50" height="50" relative="1" as="geometry">
            <mxPoint x="650" y="680" as="sourcePoint" />
            <mxPoint x="700" y="630" as="targetPoint" />
            <Array as="points">
              <mxPoint x="663" y="640" />
              <mxPoint x="780" y="640" />
            </Array>
          </mxGeometry>
        </mxCell>
        <mxCell id="7I8WZK7cO3IiVVHnGnqm-158" value="" style="endArrow=classic;html=1;rounded=0;exitX=0.5;exitY=0;exitDx=0;exitDy=0;entryX=0.5;entryY=1;entryDx=0;entryDy=0;" edge="1" parent="WIyWlLk6GJQsqaUBKTNV-1" source="7I8WZK7cO3IiVVHnGnqm-152" target="7I8WZK7cO3IiVVHnGnqm-68">
          <mxGeometry width="50" height="50" relative="1" as="geometry">
            <mxPoint x="650" y="680" as="sourcePoint" />
            <mxPoint x="700" y="630" as="targetPoint" />
            <Array as="points">
              <mxPoint x="923" y="640" />
              <mxPoint x="780" y="640" />
            </Array>
          </mxGeometry>
        </mxCell>
      </root>
    </mxGraphModel>
  </diagram>
</mxfile>
